<?xml version="1.0" encoding="utf-8"?>
<!-- Generator: Adobe Illustrator 21.0.0, SVG Export Plug-In . SVG Version: 6.00 Build 0)  -->
<svg version="1.1" id="Capa_1" xmlns="http://www.w3.org/2000/svg" xmlns:xlink="http://www.w3.org/1999/xlink" x="0px" y="0px"
	 viewBox="0 0 323.9 296.6" style="enable-background:new 0 0 323.9 296.6;" xml:space="preserve">
<style type="text/css">
	.st0{fill:#444444;}
	.st1{fill:#A5B497;}
	.st2{fill:#FFA85A;}
	.st3{fill:#EAA97D;}
	.st4{fill:#F59331;}
	.st5{fill:#EF8A2E;}
	.st6{fill:#C7AF80;}
	.st7{fill:#00AFEC;}
	.st8{fill:#F2A25A;}
	.st9{fill:#1DC5F2;}
</style>
<g>
	<path class="st0" d="M121.1,277.1h2.7v7.6c0,3.4-1.6,4.6-4.2,4.6c-0.6,0-1.5-0.1-2-0.3l0.3-2.2c0.4,0.1,0.9,0.2,1.4,0.2
		c1.1,0,1.8-0.5,1.8-2.4L121.1,277.1L121.1,277.1z"/>
	<path class="st0" d="M134.2,286.2c0,1.1,0,2.1,0.1,2.8H132l-0.1-1.2h-0.1c-0.3,0.5-1.2,1.4-2.7,1.4c-1.8,0-3.1-1.1-3.1-3.8v-5.1
		h2.7v4.7c0,1.3,0.4,2,1.4,2c0.7,0,1.2-0.5,1.3-0.9c0.1-0.2,0.1-0.4,0.1-0.6v-5.2h2.7V286.2L134.2,286.2z"/>
	<path class="st0" d="M136.3,276.4h2.7V289h-2.7V276.4z"/>
</g>
<g>
	<path class="st0" d="M181.1,276.4h2.7v7.6c0,3.4-1.6,4.6-4.2,4.6c-0.6,0-1.5-0.1-2-0.3l0.3-2.2c0.4,0.1,0.9,0.2,1.4,0.2
		c1.1,0,1.8-0.5,1.8-2.4V276.4L181.1,276.4z"/>
	<path class="st0" d="M194.1,285.6c0,1.1,0,2.1,0.1,2.8h-2.3l-0.1-1.2h-0.1c-0.3,0.5-1.2,1.4-2.7,1.4c-1.8,0-3-1.1-3-3.8v-5.1h2.7
		v4.7c0,1.3,0.4,2,1.4,2c0.7,0,1.2-0.5,1.3-0.9c0.1-0.2,0.1-0.4,0.1-0.6v-5.2h2.7L194.1,285.6L194.1,285.6L194.1,285.6z"/>
	<path class="st0" d="M196.3,282.5c0-1.1,0-2-0.1-2.8h2.3l0.1,1.2h0.1c0.4-0.6,1.2-1.4,2.7-1.4c1.8,0,3.1,1.2,3.1,3.7v5.1h-2.7v-4.8
		c0-1.1-0.4-1.9-1.4-1.9c-0.7,0-1.2,0.5-1.4,1c-0.1,0.2-0.1,0.4-0.1,0.7v5h-2.7L196.3,282.5L196.3,282.5z"/>
</g>
<g>
	<path class="st0" d="M110.8,22.5c1-0.2,2.3-0.3,3.6-0.3c2.3,0,3.8,0.4,4.9,1.2c1.2,0.9,2,2.4,2,4.5c0,2.3-0.8,3.9-2,4.8
		c-1.3,1-3.2,1.5-5.5,1.5c-1.4,0-2.4-0.1-3.1-0.2C110.8,34.2,110.8,22.5,110.8,22.5z M113.5,32.2c0.2,0.1,0.6,0.1,0.9,0.1
		c2.5,0,4.1-1.3,4.1-4.2c0-2.6-1.5-3.8-3.8-3.8c-0.6,0-1,0.1-1.2,0.1V32.2z"/>
	<path class="st0" d="M125.2,30.8c0.1,1.1,1.2,1.7,2.4,1.7c0.9,0,1.7-0.1,2.4-0.4l0.4,1.8c-0.9,0.4-2,0.6-3.1,0.6
		c-2.9,0-4.6-1.7-4.6-4.4c0-2.2,1.4-4.6,4.4-4.6c2.8,0,3.9,2.2,3.9,4.3c0,0.5-0.1,0.9-0.1,1.1L125.2,30.8z M128.4,28.9
		c0-0.6-0.3-1.8-1.5-1.8s-1.6,1-1.7,1.8H128.4z"/>
	<path class="st0" d="M139,34c-0.5,0.2-1.4,0.4-2.4,0.4c-2.8,0-4.6-1.7-4.6-4.5c0-2.5,1.7-4.6,5-4.6c0.7,0,1.5,0.1,2.1,0.3l-0.4,2
		c-0.3-0.1-0.8-0.3-1.5-0.3c-1.4,0-2.3,1-2.3,2.4c0,1.6,1.1,2.4,2.4,2.4c0.6,0,1.1-0.1,1.5-0.3L139,34z"/>
</g>
<g>
	<path class="st0" d="M181.1,22.3h2.7v7.6c0,3.4-1.6,4.6-4.2,4.6c-0.6,0-1.5-0.1-2-0.3l0.3-2.2c0.4,0.1,0.9,0.2,1.4,0.2
		c1.1,0,1.8-0.5,1.8-2.4V22.3L181.1,22.3z"/>
	<path class="st0" d="M193.1,32.2c0,0.8,0,1.6,0.1,2.1h-2.4l-0.2-0.9h-0.1c-0.6,0.7-1.5,1.1-2.5,1.1c-1.8,0-2.8-1.3-2.8-2.7
		c0-2.3,2-3.3,5.1-3.3v-0.1c0-0.5-0.2-1.1-1.6-1.1c-0.9,0-1.8,0.3-2.4,0.6l-0.5-1.7c0.6-0.3,1.8-0.8,3.4-0.8c2.9,0,3.8,1.7,3.8,3.7
		L193.1,32.2L193.1,32.2z M190.5,30.2c-1.4,0-2.5,0.3-2.5,1.4c0,0.7,0.5,1,1.1,1c0.7,0,1.2-0.4,1.4-1c0-0.1,0.1-0.3,0.1-0.5v-0.9
		C190.6,30.2,190.5,30.2,190.5,30.2z"/>
	<path class="st0" d="M195.2,28.4c0-1.1,0-2-0.1-2.8h2.3l0.1,1.2h0.1c0.4-0.6,1.2-1.4,2.7-1.4c1.8,0,3.1,1.2,3.1,3.7v5.1h-2.7v-4.8
		c0-1.1-0.4-1.9-1.4-1.9c-0.7,0-1.2,0.5-1.4,1c-0.1,0.2-0.1,0.4-0.1,0.7v5h-2.7L195.2,28.4L195.2,28.4z"/>
</g>
<g>
	<path class="st0" d="M246.5,57.4h7.3v2.2h-4.6v2.7h4.3v2.2h-4.3v4.8h-2.7V57.4L246.5,57.4z"/>
	<path class="st0" d="M257.3,65.8c0.1,1.1,1.2,1.7,2.4,1.7c0.9,0,1.7-0.1,2.4-0.4l0.4,1.8c-0.9,0.4-2,0.6-3.1,0.6
		c-2.9,0-4.6-1.7-4.6-4.4c0-2.2,1.4-4.6,4.4-4.6c2.8,0,3.9,2.2,3.9,4.3c0,0.5-0.1,0.9-0.1,1.1L257.3,65.8z M260.5,64
		c0-0.6-0.3-1.8-1.5-1.8s-1.6,1-1.7,1.8H260.5z"/>
	<path class="st0" d="M264.6,56.7h2.7v4.9l0,0c0.5-0.7,1.4-1.2,2.6-1.2c2.1,0,3.6,1.7,3.6,4.4c0,3.1-2,4.7-4,4.7c-1,0-2-0.4-2.6-1.4
		l0,0l-0.1,1.2h-2.3c0-0.6,0.1-1.6,0.1-2.6L264.6,56.7L264.6,56.7z M267.3,65.6c0,0.2,0,0.3,0.1,0.5c0.2,0.7,0.8,1.3,1.6,1.3
		c1.2,0,1.9-0.9,1.9-2.4c0-1.3-0.6-2.4-1.9-2.4c-0.7,0-1.4,0.6-1.6,1.3c0,0.2-0.1,0.3-0.1,0.5V65.6z"/>
</g>
<g>
	<path class="st0" d="M289.4,122.8c-0.1-1.4-0.1-3.2-0.1-4.9l0,0c-0.4,1.5-0.9,3.2-1.3,4.6l-1.5,4.7h-2.1l-1.3-4.6
		c-0.4-1.4-0.8-3.1-1.1-4.7l0,0c-0.1,1.6-0.1,3.5-0.2,4.9l-0.2,4.5H279l0.8-12h3.6l1.2,4c0.4,1.4,0.7,2.9,1,4.3h0.1
		c0.3-1.4,0.7-2.9,1.1-4.3l1.3-4h3.6l0.6,12h-2.6L289.4,122.8z"/>
	<path class="st0" d="M301.4,125.2c0,0.8,0,1.6,0.1,2.1h-2.4l-0.2-0.9h-0.1c-0.6,0.7-1.5,1.1-2.5,1.1c-1.8,0-2.8-1.3-2.8-2.7
		c0-2.3,2-3.3,5.1-3.3v-0.1c0-0.5-0.2-1.1-1.6-1.1c-0.9,0-1.8,0.3-2.4,0.6l-0.5-1.7c0.6-0.3,1.8-0.8,3.4-0.8c2.9,0,3.8,1.7,3.8,3.7
		L301.4,125.2L301.4,125.2z M298.8,123.2c-1.4,0-2.5,0.3-2.5,1.4c0,0.7,0.5,1,1.1,1c0.7,0,1.2-0.4,1.4-1c0-0.1,0.1-0.3,0.1-0.5v-0.9
		H298.8z"/>
	<path class="st0" d="M303.6,121.5c0-1.3,0-2.1-0.1-2.9h2.3l0.1,1.6h0.1c0.4-1.3,1.5-1.8,2.3-1.8c0.2,0,0.4,0,0.6,0.1v2.5
		c-0.2,0-0.4-0.1-0.7-0.1c-1,0-1.7,0.5-1.8,1.4c0,0.2-0.1,0.4-0.1,0.6v4.4h-2.7L303.6,121.5z"/>
</g>
<g>
	<path class="st0" d="M256.9,250.2c-0.1-1.4-0.1-3.2-0.1-4.9l0,0c-0.4,1.5-0.9,3.2-1.3,4.6l-1.5,4.7h-2.1l-1.3-4.6
		c-0.4-1.4-0.8-3.1-1.1-4.7l0,0c-0.1,1.6-0.1,3.5-0.2,4.9l-0.2,4.5h-2.5l0.8-12h3.6l1.2,4c0.4,1.4,0.7,2.9,1,4.3h0.1
		c0.3-1.4,0.7-2.9,1.1-4.3l1.3-4h3.6l0.6,12h-2.6L256.9,250.2z"/>
	<path class="st0" d="M268.9,252.6c0,0.8,0,1.6,0.1,2.1h-2.4l-0.2-0.9h-0.1c-0.6,0.7-1.5,1.1-2.5,1.1c-1.8,0-2.8-1.3-2.8-2.7
		c0-2.3,2-3.3,5.1-3.3v-0.1c0-0.5-0.2-1.1-1.6-1.1c-0.9,0-1.8,0.3-2.4,0.6l-0.5-1.7c0.6-0.3,1.8-0.8,3.4-0.8c2.9,0,3.8,1.7,3.8,3.7
		L268.9,252.6L268.9,252.6z M266.3,250.6c-1.4,0-2.5,0.3-2.5,1.4c0,0.7,0.5,1,1.1,1c0.7,0,1.2-0.4,1.4-1c0-0.1,0.1-0.3,0.1-0.5v-0.9
		H266.3z"/>
	<path class="st0" d="M272.8,246.1l1.3,4.3c0.1,0.5,0.3,1.2,0.4,1.6h0.1c0.1-0.5,0.3-1.1,0.4-1.6l1.1-4.3h2.9l-2,5.7
		c-1.2,3.4-2.1,4.8-3.1,5.7c-0.9,0.8-1.9,1.1-2.6,1.2l-0.6-2.3c0.3-0.1,0.8-0.2,1.2-0.5c0.4-0.2,0.9-0.7,1.1-1.1
		c0.1-0.1,0.1-0.3,0.1-0.4c0-0.1,0-0.2-0.1-0.4l-3.2-7.9L272.8,246.1L272.8,246.1z"/>
</g>
<g>
	<path class="st0" d="M42.6,69.3v-12h3.2l2.5,4.4c0.7,1.3,1.4,2.7,2,4.1l0,0c-0.2-1.6-0.2-3.2-0.2-5v-3.5h2.5v12h-2.8l-2.6-4.6
		c-0.7-1.3-1.5-2.8-2.1-4.2H45c0.1,1.6,0.1,3.3,0.1,5.2v3.6H42.6L42.6,69.3z"/>
	<path class="st0" d="M58.7,69.5c-2.5,0-4.5-1.7-4.5-4.5s1.8-4.6,4.6-4.6c2.6,0,4.4,1.8,4.4,4.5C63.3,68.1,61,69.5,58.7,69.5
		L58.7,69.5z M58.8,67.6c1.1,0,1.7-1,1.7-2.6c0-1.3-0.5-2.6-1.7-2.6c-1.3,0-1.8,1.3-1.8,2.6C57,66.5,57.6,67.6,58.8,67.6L58.8,67.6z
		"/>
	<path class="st0" d="M66.7,60.7l1.2,4c0.2,0.7,0.4,1.4,0.5,2.1h0.1c0.1-0.7,0.3-1.4,0.5-2.1l1.1-4h2.8l-3.2,8.7H67l-3.2-8.7
		C63.8,60.7,66.7,60.7,66.7,60.7z"/>
</g>
<g>
	<path class="st0" d="M16.3,127.7c-3.5,0-5.6-2.7-5.6-6.1c0-3.6,2.3-6.3,5.8-6.3c3.7,0,5.7,2.7,5.7,6
		C22.2,125.4,19.8,127.7,16.3,127.7L16.3,127.7z M16.4,125.6c1.8,0,2.9-1.7,2.9-4.1c0-2.1-1-4-2.9-4s-2.9,1.8-2.9,4
		C13.5,123.8,14.6,125.6,16.4,125.6L16.4,125.6L16.4,125.6z"/>
	<path class="st0" d="M30.5,127.3c-0.5,0.2-1.4,0.4-2.4,0.4c-2.8,0-4.6-1.7-4.6-4.5c0-2.5,1.7-4.6,5-4.6c0.7,0,1.5,0.1,2.1,0.3
		l-0.4,2c-0.3-0.1-0.8-0.3-1.5-0.3c-1.4,0-2.3,1-2.3,2.4c0,1.6,1.1,2.4,2.4,2.4c0.6,0,1.1-0.1,1.5-0.3L30.5,127.3z"/>
	<path class="st0" d="M35.2,116.5v2.4h1.9v2h-1.9v3.2c0,1,0.3,1.5,1.1,1.5c0.4,0,0.6,0,0.8-0.1v2c-0.3,0.1-1,0.2-1.7,0.2
		c-0.9,0-1.6-0.3-2-0.7c-0.5-0.5-0.7-1.3-0.7-2.6v-3.6h-1.2v-2h1.2v-1.6L35.2,116.5z"/>
</g>
<g>
	<path class="st0" d="M9.3,192.4c0.7,0.4,1.8,0.7,3,0.7s1.9-0.5,1.9-1.3c0-0.7-0.6-1.2-2-1.7c-2-0.7-3.3-1.8-3.3-3.6
		c0-2,1.7-3.6,4.5-3.6c1.4,0,2.3,0.3,3.1,0.6l-0.6,2.2c-0.5-0.2-1.3-0.6-2.5-0.6s-1.7,0.5-1.7,1.2c0,0.8,0.7,1.1,2.2,1.7
		c2.1,0.8,3.1,1.9,3.1,3.6c0,2-1.5,3.7-4.8,3.7c-1.4,0-2.7-0.4-3.4-0.7L9.3,192.4z"/>
	<path class="st0" d="M21,191.7c0.1,1.1,1.2,1.7,2.4,1.7c0.9,0,1.7-0.1,2.4-0.4l0.4,1.8c-0.9,0.4-2,0.6-3.1,0.6
		c-2.9,0-4.6-1.7-4.6-4.4c0-2.2,1.4-4.6,4.4-4.6c2.8,0,3.9,2.2,3.9,4.3c0,0.5-0.1,0.9-0.1,1.1L21,191.7z M24.1,189.8
		c0-0.6-0.3-1.8-1.5-1.8s-1.6,1-1.7,1.8H24.1z"/>
	<path class="st0" d="M28.3,189.4c0-1.1,0-2.1-0.1-2.9h2.3l0.1,1.2l0,0c0.6-0.9,1.6-1.4,2.9-1.4c1.9,0,3.6,1.6,3.6,4.4
		c0,3.2-2,4.6-3.9,4.6c-1,0-1.9-0.4-2.3-1l0,0v4.3h-2.7L28.3,189.4L28.3,189.4z M30.9,191.4c0,0.2,0,0.4,0.1,0.6
		c0.2,0.7,0.8,1.3,1.6,1.3c1.2,0,1.9-1,1.9-2.4s-0.6-2.4-1.8-2.4c-0.8,0-1.4,0.6-1.6,1.4c0,0.1-0.1,0.3-0.1,0.5L30.9,191.4
		L30.9,191.4z"/>
</g>
<g>
	<path class="st0" d="M45.8,251.7l-0.8,3.1h-2.8l3.7-12h3.5l3.7,12h-2.9l-0.9-3.1H45.8z M48.8,249.6l-0.7-2.5
		c-0.2-0.7-0.4-1.6-0.6-2.3h-0.1c-0.2,0.7-0.4,1.6-0.5,2.3l-0.7,2.5H48.8z"/>
	<path class="st0" d="M62.4,251.9c0,1.1,0,2.1,0.1,2.8h-2.3l-0.1-1.2H60c-0.3,0.5-1.2,1.4-2.7,1.4c-1.8,0-3.1-1.1-3.1-3.8V246h2.7
		v4.7c0,1.3,0.4,2,1.4,2c0.7,0,1.2-0.5,1.3-0.9c0.1-0.2,0.1-0.4,0.1-0.6V246h2.7V251.9L62.4,251.9L62.4,251.9z"/>
	<path class="st0" d="M72.8,253.5c0,1.7-0.3,3-1.3,3.9c-0.9,0.8-2.2,1.1-3.5,1.1c-1.2,0-2.3-0.2-3.1-0.7l0.5-2.1
		c0.5,0.3,1.5,0.7,2.5,0.7c1.3,0,2.3-0.7,2.3-2.3v-0.5l0,0c-0.5,0.7-1.3,1.1-2.3,1.1c-2.1,0-3.7-1.7-3.7-4.2c0-2.8,1.8-4.6,3.9-4.6
		c1.2,0,1.9,0.5,2.4,1.2l0,0l0.1-1h2.3c0,0.6-0.1,1.3-0.1,2.6L72.8,253.5L72.8,253.5z M70.1,249.6c0-0.2,0-0.3-0.1-0.5
		c-0.2-0.7-0.7-1.2-1.5-1.2c-1,0-1.8,0.9-1.8,2.5c0,1.3,0.6,2.3,1.8,2.3c0.7,0,1.3-0.5,1.4-1.1c0.1-0.2,0.1-0.5,0.1-0.7L70.1,249.6
		L70.1,249.6z"/>
</g>
<g>
	<path class="st0" d="M282.6,191.9l-0.8,3.1H279l3.7-12h3.5l3.7,12H287l-0.9-3.1H282.6z M285.7,189.9l-0.7-2.5
		c-0.2-0.7-0.4-1.6-0.6-2.3h-0.1c-0.2,0.7-0.4,1.6-0.5,2.3l-0.7,2.5H285.7z"/>
	<path class="st0" d="M291.3,189.2c0-1.1,0-2.1-0.1-2.9h2.3l0.1,1.2l0,0c0.6-0.9,1.6-1.4,2.9-1.4c1.9,0,3.6,1.6,3.6,4.4
		c0,3.2-2,4.6-3.9,4.6c-1,0-1.9-0.4-2.3-1l0,0v4.3h-2.7L291.3,189.2L291.3,189.2z M294,191.2c0,0.2,0,0.4,0.1,0.6
		c0.2,0.7,0.8,1.3,1.6,1.3c1.2,0,1.9-1,1.9-2.4s-0.6-2.4-1.8-2.4c-0.8,0-1.4,0.6-1.6,1.4c0,0.1-0.1,0.3-0.1,0.5L294,191.2L294,191.2
		z"/>
	<path class="st0" d="M301.9,189.1c0-1.3,0-2.1-0.1-2.9h2.3l0.1,1.6h0.1c0.4-1.3,1.5-1.8,2.3-1.8c0.2,0,0.4,0,0.6,0.1v2.5
		c-0.2,0-0.4-0.1-0.7-0.1c-1,0-1.7,0.5-1.8,1.4c0,0.2-0.1,0.4-0.1,0.6v4.4h-2.7L301.9,189.1z"/>
</g>
<g>
	<path class="st1" d="M238.9,156.3h36.8c0-21.1-5.7-40.9-15.6-58L228,116.8C234.8,128.4,238.8,141.9,238.9,156.3z"/>
	<path class="st2" d="M90.1,196.3l-31.3,18.1c10.2,17.6,24.9,32.3,42.6,42.5l17.9-31C107.2,218.8,97.1,208.6,90.1,196.3z"/>
	<path class="st3" d="M79.8,157.2c0-0.3,0-0.5,0-0.7H43.3c0,21.1,5.7,40.9,15.6,58l31.3-18.1C83.6,184.8,79.8,171.4,79.8,157.2z"/>
	<path class="st4" d="M101.5,256.9c17,9.8,36.8,15.4,57.9,15.5v-35.6c-14.6,0-28.2-4-40-10.8L101.5,256.9z"/>
	<path class="st2" d="M199.5,225.9l17.9,31c17.6-10.2,32.4-24.9,42.6-42.5l-31.4-18.1C221.7,208.6,211.6,218.8,199.5,225.9z"/>
	<path class="st3" d="M238.9,157.2c0,14.2-3.8,27.6-10.3,39.1l31.4,18.1c9.9-17.1,15.6-36.9,15.6-58h-36.7
		C238.9,156.7,238.9,156.9,238.9,157.2z"/>
	<path class="st5" d="M159.5,272.4c21.1,0,40.8-5.6,57.9-15.5l-17.9-31c-11.7,6.9-25.4,10.8-39.9,10.8L159.5,272.4L159.5,272.4z"/>
	<path class="st6" d="M120.1,87.9l-18.6-32.2C83.9,65.9,69.2,80.6,59,98.3l31.9,18.4C97.9,104.7,108.1,94.8,120.1,87.9z"/>
	<path class="st7" d="M228,116.8l32.2-18.6c-10.2-17.6-24.9-32.3-42.6-42.5L198.9,88C210.9,95,220.9,104.9,228,116.8z"/>
	<path class="st8" d="M59,98.3c-9.9,17.1-15.6,36.9-15.6,58h36.4c0.2-14.4,4.2-28,11-39.6L59,98.3z"/>
	<path class="st1" d="M159.4,77.6V40.3c-21.1,0-40.8,5.6-57.9,15.5L120.1,88C131.7,81.4,145.1,77.6,159.4,77.6L159.4,77.6z"/>
	<path class="st9" d="M217.5,55.8c-17-9.8-36.8-15.4-57.9-15.5v37.3c14.3,0,27.6,3.9,39.2,10.5L217.5,55.8z"/>
</g>
<g>
	<path class="st0" d="M147.7,127.7c1.4,0,2.5-1.1,2.5-2.5v-5.1c0-1.4-1.1-2.5-2.5-2.5s-2.5,1.1-2.5,2.5v5.1
		C145.1,126.6,146.3,127.7,147.7,127.7z"/>
	<path class="st0" d="M124.8,137l-4.4-2.5c-1.2-0.7-2.8-0.3-3.4,0.9c-0.7,1.2-0.3,2.8,0.9,3.4l4.4,2.5c1.2,0.7,2.7,0.3,3.4-0.9
		C126.4,139.2,126,137.7,124.8,137z"/>
	<path class="st0" d="M122.2,164.9l-4.4,2.5c-1.2,0.7-1.6,2.2-0.9,3.4s2.2,1.6,3.4,0.9l4.4-2.5c1.2-0.7,1.6-2.2,0.9-3.4
		C125,164.6,123.4,164.2,122.2,164.9L122.2,164.9z"/>
	<path class="st0" d="M173.1,141.3l4.4-2.5c1.2-0.7,1.6-2.2,0.9-3.4c-0.7-1.2-2.2-1.6-3.4-0.9l-4.4,2.5c-1.2,0.7-1.6,2.2-0.9,3.4
		C170.3,141.6,171.9,142,173.1,141.3z"/>
	<path class="st0" d="M183.7,156.7c-2.9-7.1-9.9-11.9-17.6-11.8c-3.2-7-10.2-12-18.4-12c-11.1,0-20.2,9.1-20.2,20.2
		c0,7.1,3.7,13.4,9.3,17c-6,9.5,0.8,21.9,12,21.9c39.7,0,37.5,0.1,38.2-0.1c8.8-1,15.7-8.5,15.7-17.6
		C202.7,164,193.9,155.9,183.7,156.7z M132.5,153.1c0-8.4,6.8-15.1,15.1-15.1c5.6,0,10.6,3.1,13.2,7.7c-8,2.3-13.5,9.6-13.6,18
		c-2.5,0.3-4.9,1.2-6.9,2.7C135.7,163.8,132.5,158.8,132.5,153.1z M186.1,186.9c-0.9,0.1-23.8,0-37.3,0c-8.3,0-12.4-10.3-6.2-16
		c1.9-1.7,4.3-2.6,7-2.4c1.6,0.1,3-1.3,2.7-2.9c-1.2-8.4,5.3-15.8,13.7-15.8c6.3,0,11.8,4.2,13.4,10.2c0.4,1.3,1.6,2.1,2.9,1.8
		c7.9-1.6,15.2,4.4,15.2,12.4C197.7,180.8,192.6,186.4,186.1,186.9z"/>
</g>
</svg>
